<mxfile host="app.diagrams.net" modified="2023-06-02T17:07:27.816Z" agent="Mozilla/5.0 (Windows NT 10.0; Win64; x64) AppleWebKit/537.36 (KHTML, like Gecko) Chrome/113.0.0.0 Safari/537.36 OPR/99.0.0.0" version="21.3.7" etag="0AGhvRaHcXpNlu1tsC2T" type="github">
  <diagram name="PÃ¡gina-1" id="VZ8QDIfOd70V91vQtX8Q">
    <mxGraphModel>
      <root>
        <mxCell id="0" />
        <mxCell id="1" parent="0" />
      </root>
    </mxGraphModel>
  </diagram>
</mxfile>
